 http://img607.imageshack.us/img607/1746/beastlyver3xlg.jpg

Country.......: USA
Genre.........: Drama, Fantasy, Romance
Date release..: 04.03.2011 [World]
Director......: Daniel Barnz
Writers.......: Daniel Barnz, Alex Flinn
Duration......: 85 min.
More..........: http://www.imdb.com/title/tt1152398
Trailer.......: http://www.imdb.com/video/imdb/vi714315801
Trailer.......:

Pilot :
A modern-day take on the "Beauty and the Beast" tale where a New York teen is transformed into a hideous monster in order to find true love. 

Cats :
Alex Pettyfer   	 ...  	Kyle
Justin Bradley 	... 	Student
Mary Kate Olsen 	... 	Kendra
Dakota Johnson 	... 	Sloan
Erik Knudsen 	... 	Trey
Vanessa Hudgens 	... 	Lindy
Karl Graboshas 	... 	Male Teacher
Peter Krause 	... 	Rob
Lisa Gay Hamilton 	... 	Zola
Jonathan Dubsky 	... 	Student at Green Party
David Francis 	... 	Dr. Davis
Neil Patrick Harris 	... 	Will
Rhiannon Moller Trotter 	... 	Halloween Partygoer
Steve Godin 	... 	Junkie
Gio Perez 	... 	Victor 

Data Technical :
!!! SAMPLE !!!
Audio.....: English
Subtitles.: None
Format                           : AVI
Format/Info                      : Audio Video Interleave
File size                        : 1.01 GiB
Duration                         : 1h 25mn
Overall bit rate                 : 1 696 Kbps
Video
ID                               : 0
Format                           : MPEG-4 Visual
Format profile                   : Simple@L3
Format settings, BVOP            : No
Format settings, QPel            : No
Format settings, GMC             : No warppoints
Format settings, Matrix          : Default (H.263)
Codec ID                         : XVID
Codec ID/Hint                    : XviD
Duration                         : 4mn 33s
Bit rate                         : 1 552 Kbps
Width                            : 720 pixels
Height                           : 480 pixels
Display aspect ratio             : 3:2
Frame rate                       : 29.970 fps
Original frame rate              : 29.000 fps
Standard                         : NTSC
Color space                      : YUV
Chroma subsampling               : 4:2:0
Bit depth                        : 8 bits
Scan type                        : Progressive
Bits/(Pixel*Frame)               : 0.150
Stream size                      : 50.6 MiB (5%)
Writing library                  : XviD 1.2.1 (UTC 2008-12-04)
Audio
ID                               : 1
Format                           : MPEG Audio
Codec ID                         : 55
Codec ID/Hint                    : MP3
Duration                         : 1h 25mn
Bit rate                         : 128 Kbps
Channel(s)                       : 2 channels
Sampling rate                    : 44.1 KHz
Stream size                      : 77.8 MiB (8%)
Alignment                        : Aligned on interleaves

Screen : 
http://img847.imageshack.us/img847/4818/beastly2011s1.jpg 
http://img851.imageshack.us/img851/471/beastly2011s2.jpg 
http://img20.imageshack.us/img20/4028/beastly2011s3.jpg 
http://img153.imageshack.us/img153/5393/beastly2011s4.jpg 
http://img163.imageshack.us/img163/1941/beastly2011s5.jpg